<svg width="43" height="42" viewBox="0 0 43 42" fill="none" xmlns="http://www.w3.org/2000/svg">
<path d="M42.0269 29.6509C42.0269 36.9699 37.2959 41.8906 30.2616 41.8906H12.2714C5.23918 41.8906 0.526855 36.9699 0.526855 29.6509V12.7593C0.526855 5.46097 5.23918 0.540283 12.2714 0.540283L30.2616 0.540283C37.2959 0.540283 42.0269 5.46097 42.0269 12.7593V29.6509ZM30.1579 22.9728C30.7596 22.3732 30.7596 21.3808 30.1579 20.7812C29.5354 20.1817 28.5601 20.1817 27.9376 20.7812L22.8331 25.9087V12.78C22.8331 11.9116 22.1276 11.2293 21.2769 11.2293C20.4054 11.2293 19.7206 11.9116 19.7206 12.78V25.9087L14.5954 20.7812C14.3049 20.4918 13.8899 20.3264 13.4956 20.3264C13.1034 20.3264 12.7071 20.4918 12.3959 20.7812C11.7941 21.3808 11.7941 22.3732 12.3959 22.9728L20.1771 30.7673C20.7581 31.3462 21.7956 31.3462 22.3766 30.7673L30.1579 22.9728Z" fill="#E70606"/>
</svg>
