<svg width="43" height="43" viewBox="0 0 43 43" fill="none" xmlns="http://www.w3.org/2000/svg">
<path d="M0.526855 13.1389C0.526855 5.81991 5.25786 0.899227 12.2921 0.899227H30.2824C37.3145 0.899227 42.0269 5.81991 42.0269 13.1389V30.0305C42.0269 37.3288 37.3145 42.2495 30.2824 42.2495H12.2921C5.25786 42.2495 0.526855 37.3288 0.526855 30.0305L0.526855 13.1389ZM12.3959 19.817C11.7941 20.4166 11.7941 21.409 12.3959 22.0085C13.0184 22.6081 13.9936 22.6081 14.6161 22.0085L19.7206 16.8811V30.0098C19.7206 30.8782 20.4261 31.5605 21.2769 31.5605C22.1484 31.5605 22.8331 30.8782 22.8331 30.0098V16.8811L27.9584 22.0085C28.2489 22.298 28.6639 22.4634 29.0581 22.4634C29.4503 22.4634 29.8466 22.298 30.1579 22.0085C30.7596 21.409 30.7596 20.4166 30.1579 19.817L22.3766 12.0225C21.7956 11.4436 20.7581 11.4436 20.1771 12.0225L12.3959 19.817Z" fill="#3ECF0A"/>
</svg>
