<svg width="50" height="47" viewBox="0 0 50 47" fill="none" xmlns="http://www.w3.org/2000/svg">
<path d="M25.1208 31.1615C32.8114 31.1615 39.378 32.7245 39.378 38.9788C39.378 45.2305 32.8535 46.8504 25.1208 46.8504C17.4303 46.8504 10.8637 45.2874 10.8637 39.0357C10.8637 32.7814 17.3882 31.1615 25.1208 31.1615ZM37.4171 27.3955C40.3572 27.3256 43.5181 27.8431 44.6861 28.2106C47.1607 28.8342 48.7883 30.1073 49.4626 31.9575C50.0326 33.4764 50.0326 35.2386 49.4626 36.755C48.431 39.6247 45.1056 40.5458 43.8131 40.7839C43.5462 40.8357 43.3315 40.5381 43.3596 40.1939C44.0198 32.2421 38.7677 28.4719 37.409 27.6051C37.3508 27.5663 37.3388 27.5067 37.3448 27.4705C37.3488 27.4446 37.3729 27.4032 37.4171 27.3955ZM13.0546 27.3965C13.0988 27.4043 13.1208 27.4457 13.1249 27.469C13.1309 27.5078 13.1188 27.5647 13.0626 27.6061C11.7019 28.473 6.44983 32.2432 7.1101 40.1924C7.1382 40.5391 6.92547 40.8341 6.65855 40.785C5.36609 40.5469 2.04062 39.6257 1.00906 36.756C0.437085 35.237 0.437085 33.4775 1.00906 31.9585C1.68338 30.1084 3.30899 28.8352 5.78353 28.209C6.95356 27.8442 10.1125 27.3266 13.0546 27.3965ZM25.1208 0.878906C30.3569 0.878906 34.5554 6.28707 34.5554 13.0408C34.5554 19.792 30.3569 25.2053 25.1208 25.2053C19.8848 25.2053 15.6863 19.792 15.6863 13.0408C15.6863 6.28707 19.8848 0.878906 25.1208 0.878906ZM37.9288 2.9071C42.9863 2.9071 46.958 9.04239 45.6053 15.8763C44.6922 20.4772 41.3867 23.5332 37.704 23.409C37.3348 23.396 36.9715 23.352 36.6203 23.2744C36.3654 23.2175 36.237 22.8474 36.3815 22.5731C37.7863 19.9079 38.5871 16.7018 38.5871 13.2602C38.5871 9.6686 37.7121 6.32019 36.1928 3.57471C36.1447 3.48932 36.1085 3.35735 36.1567 3.25902C36.1968 3.1788 36.2711 3.1374 36.3413 3.1167C36.8531 2.98214 37.3789 2.9071 37.9288 2.9071ZM12.5398 2.90684C13.0897 2.90684 13.6155 2.98188 14.1293 3.11644C14.1976 3.13714 14.2738 3.18113 14.314 3.25876C14.3601 3.35709 14.326 3.48906 14.2778 3.57445C12.7586 6.31993 11.8836 9.66834 11.8836 13.26C11.8836 16.7015 12.6843 19.9076 14.0892 22.5729C14.2337 22.8472 14.1052 23.2172 13.8504 23.2741C13.4971 23.3544 13.1359 23.3958 12.7666 23.4087C9.08391 23.5329 5.77851 20.4769 4.86536 15.8761C3.51069 9.04213 7.48239 2.90684 12.5398 2.90684Z" fill="#FF702A"/>
</svg>
