<svg width="46" height="46" viewBox="0 0 46 46" fill="none" xmlns="http://www.w3.org/2000/svg">
<g clip-path="url(#clip0_0_389)">
<path d="M38.3775 18.06H37.2488L29.5747 8.467C29.1516 7.93831 28.615 7.51152 28.0047 7.2182C27.3943 6.92488 26.7259 6.77255 26.0487 6.77246H10.958C9.11184 6.77246 7.45187 7.89627 6.76615 9.61056L3.38625 18.2194C1.44198 18.7231 0 20.4734 0 22.575V30.4762C0 31.0998 0.505116 31.605 1.12875 31.605H4.515C4.515 35.3454 7.54711 38.3775 11.2875 38.3775C15.0279 38.3775 18.06 35.3454 18.06 31.605H27.09C27.09 35.3454 30.1221 38.3775 33.8625 38.3775C37.6029 38.3775 40.635 35.3454 40.635 31.605H44.0213C44.6449 31.605 45.15 31.0998 45.15 30.4762V24.8325C45.15 21.0921 42.1179 18.06 38.3775 18.06ZM11.2875 34.9912C9.42013 34.9912 7.90125 33.4723 7.90125 31.605C7.90125 29.7376 9.42013 28.2187 11.2875 28.2187C13.1549 28.2187 14.6738 29.7376 14.6738 31.605C14.6738 33.4723 13.1549 34.9912 11.2875 34.9912ZM16.3669 18.06H8.24905L10.958 11.2875H16.3669V18.06ZM19.7531 18.06V11.2875H26.0487L31.4667 18.06H19.7531ZM33.8625 34.9912C31.9951 34.9912 30.4763 33.4723 30.4763 31.605C30.4763 29.7376 31.9951 28.2187 33.8625 28.2187C35.7299 28.2187 37.2488 29.7376 37.2488 31.605C37.2488 33.4723 35.7299 34.9912 33.8625 34.9912Z" fill="#FF702A"/>
</g>
<defs>
<clipPath id="clip0_0_389">
<rect width="45.15" height="45.15" fill="white"/>
</clipPath>
</defs>
</svg>
